<svg xmlns="http://www.w3.org/2000/svg" viewBox="0 0 24 24">
  <rect width="24" height="24" rx="5.5" fill="#211B14"/>
  <path d="M12 21c3.85 0 6.125-2.54 6.125-5.775 0-2.45-1.4-4.29-2.625-5.865-1.05-1.4-2.1-2.71-2.1-4.985 0 0-5.25 2.275-5.25 7.35 0-.875-1.05-2.1-1.05-2.1-.77 1.31-1.225 3.15-1.225 5.6C5.875 18.46 8.15 21 12 21z" fill="none" stroke="#E8A020" stroke-width="1.5" stroke-linejoin="round"/>
  <path d="M12 20.2c1.925 0 3.06-1.31 3.06-2.89 0-1.66-1.22-2.62-2.01-3.85-.44.79-1.84 1.4-1.84 2.98-.35-.35-.7-.96-.7-.96-.52.79-1.57 1.49-1.57 2.71 0 1.31 1.135 2.01 3.06 2.01z" fill="#E8A020"/>
</svg>
